<?xml version="1.0" encoding="UTF-8"?>
<svg xmlns="http://www.w3.org/2000/svg" xmlns:xlink="http://www.w3.org/1999/xlink" viewBox="0 0 48 48" width="48px" height="48px">
<g id="surface5298787">
<path style=" stroke:none;fill-rule:nonzero;fill:rgb(100%,100%,100%);fill-opacity:1;" d="M 24 6 C 16.328125 6 9.925781 10.742188 7.3125 17.4375 L 10.078125 18.5625 C 12.265625 12.960938 17.566406 9 24 9 C 28.863281 9 33.199219 11.386719 35.90625 15 L 30 15 L 30 18 L 40.5 18 L 40.5 7.5 L 37.5 7.5 L 37.5 12.140625 C 34.214844 8.375 29.355469 6 24 6 Z M 37.921875 29.4375 C 35.738281 35.039062 30.433594 39 24 39 C 19.085938 39 14.765625 36.582031 12.046875 33 L 18 33 L 18 30 L 7.5 30 L 7.5 40.5 L 10.5 40.5 L 10.5 35.859375 C 13.78125 39.582031 18.589844 42 24 42 C 31.671875 42 38.074219 37.261719 40.6875 30.5625 Z M 37.921875 29.4375 "/>
</g>
</svg>
